<svg version="1" xmlns="http://www.w3.org/2000/svg" width="577.333" height="577.333" viewBox="0 0 433.000000 433.000000"><path d="M192.8 27.9c-12.3 8.6-32.9 23.2-45.8 32.4-12.9 9.2-44.3 31.5-69.7 49.5C51.8 127.8 31 142.7 31 143c0 .3 83.2.6 185 .6 101.7 0 184.6-.3 184.2-.7-.4-.4-38.9-27.6-85.7-60.6-46.7-33-88.2-62.3-92.2-65.1l-7.2-5.1-22.3 15.8zm46.5 52.8c33.5 25.6 37.6 28.7 37.7 29.3 0 .3-27.5.5-61 .5-33.6 0-61-.4-61.1-.8 0-.5 10.2-8.7 22.8-18.4 12.5-9.6 25.9-19.9 29.7-22.9 3.8-3 7.3-5.4 7.8-5.4s11.3 8 24.1 17.7zM46.2 163.8l-5.3.3.3 13.7.3 13.6h12.3l12.2-.1v114.5l-5.6.1c-3.1 0-5.9.2-6.1.5-.3.2-.6 2.4-.7 4.8-.2 3-.6 4.2-1.6 4-2.2-.5-2.7 1.5-2.5 10.8.1 7.3-.1 8.9-1.4 9.2-.9.2-7.4.3-14.4.3l-12.8-.1.3 10.5.3 10.5 123.2.1c81.8 0 122.9-.3 122.5-1-.3-.6-2.4-2.9-4.7-5.2-2.2-2.4-3.9-4.5-3.7-4.9.2-.3-.8-1.6-2.3-3-1.4-1.3-2.3-2.4-1.9-2.4.4 0-.1-.9-1.1-2s-1.4-2-.9-2c.5 0 .4-.4-.1-.8-.9-.6-3.3-5.1-4-7.2-.1-.3-.4-1.2-.8-2-1.4-3.7-3.1-9.7-3.4-12a801 801 0 0 1-1.1-8.2c-1.1-7.9-.4-20.8 1.1-20.8.4 0 .5-.5.2-1-.7-1.2 1.5-11 2.5-11 .3 0 .6-.9.7-2 .2-2.4 3.3-9.3 4.7-10.2.6-.4.7-.8.2-.8-.5 0 .1-1.1 1.4-2.5 1.3-1.4 1.9-2.5 1.4-2.5s-.4-.4.1-.8c.6-.4 2.1-2.2 3.4-4 2.4-3.5 11.1-12.6 11.1-11.7 0 .4 1-.5 2.3-1.8 1.2-1.4 2.4-2.4 2.7-2.4.3.1 1.5-.8 2.8-1.8 2.1-1.9 2.2-2.5 2.2-21.5v-19.6h19c18.6-.1 19 0 19.1 2 0 1.2.2 7.5.2 14.1l.2 12 3.8-.1c2 0 3.7.2 3.7.5s2.1.7 4.8.7c2.6.1 5.6.4 6.7.7 1.1.3 3.4.8 5 1.2 1.7.4 3.6 1.2 4.3 1.8.6.5 1.2.7 1.2.3 0-.3 3.6 1.2 8 3.4l8 4v-40.7l11.3.1c6.1.1 11.8 0 12.5-.2.9-.3 1.2-4 1.2-13.8V164h-6.2c-38.6-.3-332.6-.4-336.6-.2zm103.6 84.9l.2 57.3h-12v4.5c0 3.6-.4 4.5-1.7 4.6-2.5.1-9.5.1-11 0-.8-.1-1.3-1.7-1.3-4.6 0-4.9.2-4.8-7.2-4.5-4.4.1-4.8-.1-4.9-2.2-.4-12.9-.2-109.3.2-110.7.6-1.5 2.5-1.7 19-1.7l18.4.1.3 57.2zm84.2.1c0 45.2-.3 57.3-1.2 57.1-.7-.1-3.4-.1-6 0l-4.7.1-.3 4.7-.3 4.7-6-.1c-3.3-.1-6.3-.2-6.7-.2-.5-.1-.8-2.1-.8-4.6 0-4.9.2-4.8-7.2-4.5l-4.8.1v-5.3c-.1-7.3-.1-88.1 0-99.9v-9.5h38v57.4z"/><path d="M312.7 229.6c-.1.2-1.8.6-3.7.9-5.5.9-10 2.5-17 6.1-22.8 11.5-36.8 34.2-36.8 59.8 0 19.2 7.5 36.6 21.5 49.7 22.7 21.2 57.6 24.1 83.3 6.9l4.5-3 25.5 25.5c17.1 17 26.2 25.5 27.6 25.5 2.5 0 5.4-3 5.4-5.5 0-1.1-10.1-12.1-25-27-13.7-13.8-25-25.5-25-26.1 0-.6.9-1.9 2-2.9 5.9-5.3 13.3-22.1 14.9-33.6 5.6-41-27.5-77.8-69.1-76.8-4.2.1-7.9.3-8.1.5zm17.9 10.8c10.5 1.2 21.9 6.6 30.6 14.6 23.1 21.1 24.5 57.1 3.3 79.9-11.8 12.6-24.9 18.4-42 18.3-8 0-11.4-.5-17.3-2.5-23.9-8.2-39.3-29.3-39.3-53.9 0-15.1 5.9-29.3 16.7-40.1 9.5-9.6 20.8-15 33.9-16.4 3.3-.3 6.2-.7 6.3-.9.2-.1.9-.1 1.5.1.7.2 3.5.6 6.3.9z"/></svg>